<?xml version="1.0" encoding="UTF-8"?>
<svg width="150px" height="48px" viewBox="0 0 150 48" version="1.1" xmlns="http://www.w3.org/2000/svg" xmlns:xlink="http://www.w3.org/1999/xlink">
    <!-- Generator: Sketch 59.1 (86144) - https://sketch.com -->
    <title>Group 8</title>
    <desc>Created with Sketch.</desc>
    <g id="Symbols" stroke="none" stroke-width="1" fill="none" fill-rule="evenodd">
        <g id="header" transform="translate(-50.000000, -82.000000)" fill="#3AB7B9">
            <g id="Group-11">
                <g id="Group-13" transform="translate(0.000000, 45.000000)">
                    <g id="Group-3">
                        <g id="Group-9">
                            <g id="Group-8" transform="translate(50.000000, 37.000000)">
                                <path d="M24.1872167,7.10542736e-14 C30.6245345,7.10542736e-14 36.6776539,2.47110932 41.2330211,6.95775294 C45.8123453,11.4677255 48.3469005,17.4874781 48.3710162,23.9069042 C48.3939271,30.3258902 45.9024056,36.3636897 41.356355,40.9071152 C36.803206,45.4580235 30.7363335,47.976671 24.2741715,48 L24.2741715,48 L24.1836675,48 C17.75611,48 11.7034343,45.5249292 7.14008138,41.0299223 C0.488925807,34.4775651 -1.75459699,24.5896065 1.4245773,15.8390448 C1.6370842,15.2531798 2.12642682,14.8103697 2.73511048,14.6527891 C2.8939361,14.5990885 3.06207831,14.5726783 3.2470791,14.5726783 L3.2470791,14.5726783 L14.6789746,14.5726783 C16.0196758,14.5726783 16.0196758,15.8170364 16.0196758,16.2259535 L16.0195656,16.2837952 C16.0171413,16.7401708 15.9613844,17.8774679 14.6789746,17.8774679 L14.6789746,17.8774679 L12.7597577,17.8774679 L16.1696284,29.4200222 C16.4619918,30.3518602 16.7099905,31.2044677 16.9189482,31.9985328 C17.1323424,31.186861 17.3901013,30.3082834 17.6988796,29.3421123 L17.6988796,29.3421123 L21.5417498,17.6102853 C21.9592216,16.3276325 22.6180373,15.8042715 23.8158842,15.8042715 L23.8158842,15.8042715 L24.5257194,15.8042715 C25.5838174,15.8042715 26.3912549,16.1163514 26.8894705,17.6393364 L26.8894705,17.6393364 L30.4098093,29.357078 C30.6249781,30.0600281 30.8809624,30.9254005 31.1200881,31.858559 C31.3192856,31.077699 31.5517566,30.2664674 31.8219377,29.4050564 L31.8219377,29.4050564 L35.2531034,17.8774679 L33.3662728,17.8774679 C32.1425594,17.8774679 32.0361495,16.8412117 32.0268965,16.350078 L32.0268965,16.1016955 C32.0361495,15.6100354 32.1425594,14.5726783 33.3662728,14.5726783 L33.3662728,14.5726783 L42.2281213,14.5726783 C41.2614145,12.7455364 40.0263013,11.0865391 38.553837,9.63574173 C34.714516,5.85468918 29.6125757,3.77224917 24.188104,3.77224917 C18.7064019,3.77224917 13.5667516,5.89166338 9.71500847,9.73962164 C9.35565442,10.0987996 8.87607203,10.2964355 8.365878,10.2964355 C7.86012044,10.2964355 7.38408722,10.1018808 7.02562046,9.74842502 C6.28206812,9.0151033 6.277188,7.81828352 7.01630387,7.08011995 C11.5858678,2.51424589 17.6842392,7.10542736e-14 24.1872167,7.10542736e-14 Z M8.71192265,17.8774679 L4.74704955,17.8774679 C2.46537312,25.0421003 4.44492596,33.0575796 9.81970916,38.3523737 C13.6656849,42.140469 18.7667379,44.2264303 24.1836675,44.2264303 L24.1836675,44.2264303 L24.2568693,44.2259902 C29.7066288,44.2066227 34.820104,42.0841273 38.6572067,38.248934 C44.0226734,32.8863538 45.9130531,25.0988822 43.6154054,17.8774679 L43.6154054,17.8774679 L39.0675802,17.8774679 L33.7203031,35.6655815 C33.3267882,36.9834478 32.6741835,37.5204541 31.4692383,37.5204541 L31.4692383,37.5204541 L30.7594031,37.5204541 C29.5872878,37.5204541 28.8863256,36.9724436 28.4852687,35.7434915 L28.4852687,35.7434915 L24.5802879,22.9741859 C24.4090402,22.4204532 24.2573129,21.8988528 24.1224443,21.4010216 C23.9760408,21.9521133 23.8158842,22.4966024 23.6393127,23.0454933 L23.6393127,23.0454933 L19.4712493,35.744812 C19.3275077,36.1836606 18.8905154,37.5204541 17.37413,37.5204541 L17.37413,37.5204541 L16.3102645,37.5204541 C15.1062066,37.5204541 14.4323068,36.9623197 14.0569815,35.653697 L14.0569815,35.653697 L8.71192265,17.8774679 Z M136.751814,29.2013462 C137.059705,29.2013462 137.535294,29.2752946 137.769096,29.3593669 C138.369794,29.583413 138.331197,30.0425093 138.249122,30.3677943 C138.115585,30.9206467 137.823221,31.0377317 137.601398,31.0377317 C137.549047,31.0377317 137.496697,31.0302488 137.441685,31.0170437 C137.210101,30.9510183 136.941695,30.9096425 136.751814,30.9096425 C136.508252,30.9096425 136.313934,30.95542 136.172411,31.0452145 C136.447028,31.5051912 136.591214,32.058924 136.591214,32.6579941 L136.591214,32.6579941 L136.591214,32.8609121 C136.591214,34.8830489 135.19062,35.9966767 132.647192,35.9966767 C131.665845,35.9966767 130.907208,35.8531816 130.277673,35.5481444 C130.153896,35.7409385 130.091785,35.9508991 130.084687,36.1392915 C130.066497,36.6234775 130.160107,37.1221891 130.309172,37.3149832 C131.011909,37.1481591 131.84286,37.0566039 132.66405,37.0566039 C136.852965,37.0566039 137.732274,38.6883108 137.732274,40.0576768 L137.732274,40.0576768 L137.732274,40.2262616 C137.732274,42.2114242 136.0859,43.1767151 132.698211,43.1767151 C129.310523,43.1767151 127.663705,42.2114242 127.663705,40.2262616 L127.663705,40.2262616 L127.663705,40.0576768 C127.663705,39.2248769 128.028827,38.5157645 128.696959,38.0386212 C128.384632,37.6609561 128.196525,36.9364377 128.208947,36.0886721 C128.218708,35.4389825 128.513733,34.815703 129.050989,34.3557263 C128.817187,33.9239204 128.702727,33.4331319 128.702727,32.8609121 L128.702727,32.8609121 L128.702727,32.6579941 C128.702727,30.6525837 130.177409,29.4544434 132.647192,29.4544434 C133.489678,29.4544434 134.194633,29.5908958 134.795774,29.8708434 C135.268702,29.4319948 135.941271,29.2013462 136.751814,29.2013462 Z M132.698211,38.7318875 C129.767631,38.7318875 129.60017,39.6205329 129.5906,40.0375371 L129.5906,40.28253 C129.60017,40.7096298 129.767631,41.5348843 132.698211,41.5348843 C135.628373,41.5348843 135.795811,40.7096298 135.805379,40.28253 L135.805379,40.0375371 C135.795811,39.6205329 135.628373,38.7318875 132.698211,38.7318875 Z M74.397319,29.4547956 C77.0174981,29.4547956 78.4606817,30.8747811 78.4606817,33.4528515 L78.4606817,33.4528515 L78.4606817,33.6720557 C78.4606817,34.6778421 78.244182,34.8812002 77.1741055,34.8812002 L77.1741055,34.8812002 L71.7598377,34.8812002 C71.9262053,36.5468001 72.7234389,37.1441095 74.7207376,37.1441095 C75.4798176,37.1441095 76.4159128,37.0019349 77.162127,36.7726068 C77.2530746,36.7466368 77.3462405,36.7241882 77.4447301,36.7241882 C77.8954755,36.7241882 78.0183657,37.1529129 78.0711597,37.3355831 C78.1425868,37.5723941 78.3116163,38.1314088 77.7211222,38.3259636 C76.7739359,38.6591716 75.7003102,38.8356794 74.6186988,38.8356794 C71.4022582,38.8356794 69.7718555,37.3263395 69.7718555,34.3477152 L69.7718555,34.3477152 L69.7718555,34.0105457 C69.7718555,31.1573696 71.5011915,29.4547956 74.397319,29.4547956 Z M105.629357,29.4547956 C108.249536,29.4547956 109.69272,30.8747811 109.69272,33.4528515 L109.69272,33.4528515 L109.69272,33.6720557 C109.69272,34.6778421 109.47622,34.8812002 108.4057,34.8812002 L108.4057,34.8812002 L102.991875,34.8812002 C103.158243,36.5468001 103.955477,37.1441095 105.952775,37.1441095 C106.711855,37.1441095 107.647507,37.0019349 108.394165,36.7726068 C108.485112,36.7466368 108.578278,36.7241882 108.676768,36.7241882 C109.12707,36.7241882 109.250403,37.1529129 109.303197,37.3355831 C109.374625,37.5723941 109.543654,38.1314088 108.95316,38.3259636 C108.005974,38.6591716 106.932348,38.8356794 105.850737,38.8356794 C102.634296,38.8356794 101.003893,37.3263395 101.003893,34.3477152 L101.003893,34.3477152 L101.003893,34.0105457 C101.003893,31.1573696 102.733229,29.4547956 105.629357,29.4547956 Z M91.4989342,25.7032343 C92.2047765,25.7032343 92.547272,26.043485 92.547272,26.7437941 L92.547272,26.7437941 L92.547272,28.8046658 C92.547272,29.3434328 92.5290825,29.8205761 92.4891542,30.2919972 C93.1453081,29.742226 94.0627701,29.4547956 95.1780986,29.4547956 C97.9154005,29.4547956 99.6158994,31.1613311 99.6158994,33.9084265 L99.6158994,33.9084265 L99.6158994,34.297536 C99.6158994,37.0120588 97.7982777,38.8356794 95.093362,38.8356794 C93.9398799,38.8356794 92.9421178,38.5596933 92.3245612,38.0829902 L92.3245612,38.0829902 C92.2398246,38.7177141 91.7473765,38.7177141 91.4816319,38.7177141 L91.431682,38.717526 C91.1780059,38.7148931 90.6551176,38.6753991 90.6551176,38.0829902 L90.6551176,38.0829902 L90.6551176,27.3776376 L90.2043723,27.3776376 C89.9590355,27.3776376 89.5482184,27.2781594 89.5482184,26.6077818 C89.5482184,26.0078313 89.8543348,25.7032343 90.4599129,25.7032343 L90.4599129,25.7032343 Z M58.7898181,29.6744399 C59.4637179,29.6744399 59.4637179,30.2189291 59.4637179,30.5116416 L59.4635182,30.5733164 C59.4607228,30.8746461 59.4187912,31.3497235 58.7898181,31.3497235 L58.7898181,31.3497235 L58.1789162,31.3497235 L59.4646052,35.6770259 C59.5018715,35.7910297 59.5369196,35.9059139 59.5701932,36.0229988 C59.6065722,35.8966703 59.6447258,35.7721024 59.6842104,35.6501756 L59.6842104,35.6501756 L61.1131974,30.8932682 C61.3137258,30.3258902 61.7107899,30.2493008 62.1114031,30.2493008 L62.1114031,30.2493008 L62.5373042,30.2493008 C62.939692,30.2493008 63.3389743,30.322809 63.5297425,30.8580546 L63.5297425,30.8580546 L64.9498565,35.6602995 C64.9817991,35.773423 65.0150726,35.8900678 65.0470152,36.0093536 C65.0802887,35.8861062 65.1144495,35.7659401 65.147723,35.6475346 L65.147723,35.6475346 L66.4028003,31.3497235 L65.5523291,31.3497235 C64.8779857,31.3497235 64.8779857,30.804354 64.8779857,30.5116416 C64.8779857,30.2189291 64.8779857,29.6744399 65.5523291,29.6744399 L65.5523291,29.6744399 L68.6858077,29.6744399 C69.3601511,29.6744399 69.3601511,30.2189291 69.3601511,30.5116416 C69.3601511,30.804354 69.3601511,31.3497235 68.6858077,31.3497235 L68.6858077,31.3497235 L68.3064896,31.3497235 L66.2257852,38.0931141 C66.0257004,38.6574109 65.6281927,38.7340003 65.2280231,38.7340003 L65.2280231,38.7340003 L64.8362828,38.7340003 C64.2959208,38.7340003 63.9849243,38.5363644 63.8265423,38.0909133 L63.8265423,38.0909133 L62.3558526,33.2235234 C62.3407686,33.1729039 62.3256846,33.1227246 62.3114879,33.0721052 C62.2928547,33.1324084 62.2737779,33.1927115 62.2538138,33.2521344 L62.2538138,33.2521344 L60.7928842,38.074627 C60.6291785,38.6587314 60.1735531,38.7340003 59.7946785,38.7340003 L59.7946785,38.7340003 L59.2671823,38.7340003 C58.6496257,38.7340003 58.4260276,38.4351255 58.2880534,38.142413 L58.2880534,38.142413 L58.2738567,38.1067593 L56.1403583,31.3497235 L55.7925391,31.3497235 C55.1181957,31.3497235 55.1181957,30.804354 55.1181957,30.5116416 L55.1183955,30.449978 C55.1211928,30.1487505 55.1631519,29.6744399 55.7925391,29.6744399 L55.7925391,29.6744399 Z M122.144382,29.4547075 C124.591982,29.4547075 125.833307,30.8394795 125.833307,33.5707288 L125.833307,33.5707288 L125.833307,36.9582701 L126.48813,36.9582701 C127.162029,36.9582701 127.162029,37.5023191 127.162029,37.7950316 C127.162029,38.087744 127.162029,38.6331136 126.48813,38.6331136 L126.48813,38.6331136 L123.303188,38.6331136 C122.628844,38.6331136 122.628844,38.087744 122.628844,37.7950316 C122.628844,37.5023191 122.628844,36.9582701 123.303188,36.9582701 L123.303188,36.9582701 L123.940709,36.9582701 L123.940709,33.7225871 C123.940709,31.7836422 123.376833,31.0960981 121.786802,31.0960981 C120.016651,31.0960981 119.15642,31.9663124 119.15642,33.7569203 L119.15642,33.7569203 L119.15642,36.9582701 L119.964301,36.9582701 C120.6382,36.9582701 120.6382,37.5023191 120.6382,37.7950316 L120.638001,37.8567064 C120.635205,38.1580361 120.593274,38.6331136 119.964301,38.6331136 L119.964301,38.6331136 L116.779359,38.6331136 C116.105459,38.6331136 116.105459,38.087744 116.105459,37.7950316 L116.105659,37.7333736 C116.108454,37.4321973 116.150386,36.9582701 116.779359,36.9582701 L116.779359,36.9582701 L117.263821,36.9582701 L117.263821,31.3496355 L116.745198,31.3496355 C116.547775,31.3496355 116.088157,31.2743666 116.088157,30.5797797 C116.088157,29.9789489 116.395161,29.6743519 117.000739,29.6743519 L117.000739,29.6743519 L117.920419,29.6743519 C118.523335,29.6743519 118.865831,29.9256885 118.984284,30.4626948 C119.657297,29.7769113 120.67591,29.4547075 122.144382,29.4547075 Z M112.698783,29.6743519 C113.404181,29.6743519 113.746677,30.0146026 113.746677,30.7144715 L113.746677,30.7144715 L113.746677,36.9582701 L114.470265,36.9582701 C115.144165,36.9582701 115.144165,37.5023191 115.144165,37.7950316 C115.144165,38.087744 115.144165,38.6331136 114.470265,38.6331136 L114.470265,38.6331136 L111.37006,38.6331136 C110.69616,38.6331136 110.69616,38.087744 110.69616,37.7950316 L110.69636,37.7333736 C110.699155,37.4321973 110.741087,36.9582701 111.37006,36.9582701 L111.37006,36.9582701 L111.854523,36.9582701 L111.854523,31.3496355 L111.353201,31.3496355 C111.155335,31.3496355 110.69616,31.2743666 110.69616,30.5797797 C110.69616,29.9789489 111.003608,29.6743519 111.608742,29.6743519 L111.608742,29.6743519 Z M81.4667006,25.7031463 C82.1720993,25.7031463 82.5150384,26.043397 82.5150384,26.7432659 L82.5150384,26.7432659 L82.5150384,36.9582701 L83.238183,36.9582701 C83.9120827,36.9582701 83.9120827,37.5023191 83.9120827,37.7950316 C83.9120827,38.087744 83.9120827,38.6331136 83.238183,38.6331136 L83.238183,38.6331136 L80.1379779,38.6331136 C79.4640781,38.6331136 79.4640781,38.087744 79.4640781,37.7950316 L79.4642778,37.7333736 C79.4670732,37.4321973 79.5090047,36.9582701 80.1379779,36.9582701 L80.1379779,36.9582701 L80.6224404,36.9582701 L80.6224404,27.3775495 L80.1211193,27.3775495 C79.9232527,27.3775495 79.4640781,27.3027208 79.4640781,26.6076938 C79.4640781,26.0077433 79.7710818,25.7031463 80.3766599,25.7031463 L80.3766599,25.7031463 Z M86.780926,25.7031463 C87.4867683,25.7031463 87.8292638,26.043397 87.8292638,26.7432659 L87.8292638,26.7432659 L87.8292638,36.9582701 L88.5524084,36.9582701 C89.2263081,36.9582701 89.2263081,37.5023191 89.2263081,37.7950316 L89.2261085,37.8567064 C89.223313,38.1580361 89.1813815,38.6331136 88.5524084,38.6331136 L88.5524084,38.6331136 L85.4526469,38.6331136 C84.7783035,38.6331136 84.7783035,38.087744 84.7783035,37.7950316 L84.7785033,37.7333736 C84.7813006,37.4321973 84.8232597,36.9582701 85.4526469,36.9582701 L85.4526469,36.9582701 L85.9366658,36.9582701 L85.9366658,27.3775495 L85.4353447,27.3775495 C85.2374781,27.3775495 84.7783035,27.3027208 84.7783035,26.6076938 C84.7783035,26.0077433 85.0857508,25.7031463 85.6908853,25.7031463 L85.6908853,25.7031463 Z M95.041899,31.129639 C93.3764482,31.129639 92.4962526,32.1076947 92.4962526,33.9590459 L92.4962526,33.9590459 L92.4962526,34.7535512 C92.4962526,36.294143 93.3746736,37.1780025 94.9056994,37.1780025 C96.7042442,37.1780025 97.6554234,36.135242 97.6554234,34.1619639 L97.6554234,34.1619639 L97.6554234,34.0439986 C97.6554234,32.1376262 96.7521581,31.129639 95.041899,31.129639 Z M132.62989,31.1125604 C131.2954,31.1125604 130.646788,31.634601 130.646788,32.7086136 L130.646788,32.7086136 L130.646788,32.827019 C130.646788,33.8865061 131.244824,34.3389999 132.647192,34.3389999 C133.55933,34.3389999 134.647596,34.0704967 134.647596,32.7935662 L134.647596,32.7935662 L134.647596,32.6918871 C134.647596,31.5408449 134.100136,31.1125604 132.62989,31.1125604 Z M105.527762,31.0961861 C103.984757,31.0961861 103.140941,31.8114609 103.014945,33.2235234 L103.014945,33.2235234 L107.856465,33.2235234 C107.757088,31.7348715 107.051245,31.0961861 105.527762,31.0961861 Z M74.2952802,31.0961861 C72.7527196,31.0961861 71.9089031,31.8114609 71.7829073,33.2235234 L71.7829073,33.2235234 L76.6244268,33.2235234 C76.5250499,31.7348715 75.8192076,31.0961861 74.2952802,31.0961861 Z M112.382596,26.006907 C113.091987,26.006907 113.482396,26.4241873 113.482396,27.1830388 C113.482396,27.7218058 113.373703,28.2733377 112.569815,28.2733377 L112.569815,28.2733377 L112.059177,28.2733377 C111.239317,28.2733377 111.129293,27.7218058 111.129293,27.1830388 C111.129293,26.4241873 111.526357,26.006907 112.246396,26.006907 L112.246396,26.006907 Z M84.8712475,12.7823345 C87.4776736,12.7823345 88.6914917,13.884518 88.6914917,16.2513072 L88.6914917,16.2513072 L88.6914917,20.0372016 C88.6914917,20.2383589 88.7056884,20.31935 89.0783519,20.31935 L89.0783519,20.31935 L89.2997317,20.31935 C89.744266,20.31935 89.7815323,20.6226265 89.7815323,20.9325056 C89.7815323,21.2731965 89.7447096,21.5795541 89.2997317,21.5795541 L89.2997317,21.5795541 L88.856972,21.5795541 C87.9971842,21.5795541 87.5655157,21.3445038 87.3334883,20.7251859 C86.739445,21.4364992 85.7700763,21.7824721 84.3770248,21.7824721 C82.1153125,21.7824721 80.7102825,20.7766857 80.7102825,19.1586241 L80.7102825,19.1586241 L80.7102825,19.0565049 C80.7102825,18.2166622 81.0975863,16.2636319 84.6840285,16.2636319 C85.8015753,16.2636319 86.6325261,16.5052848 87.2168091,17.0013554 L87.2168091,17.0013554 L87.2168091,16.4203321 C87.2168091,14.7608946 86.5393602,14.1433374 84.7181893,14.1433374 C83.8286771,14.1433374 83.0065993,14.2863924 82.0540892,14.6068355 C81.9857675,14.6292841 81.9254316,14.6398481 81.8682011,14.6398481 C81.5305857,14.6398481 81.4267723,14.2784693 81.3815204,14.1235298 C81.2816998,13.8255353 81.2111599,13.4861649 81.676102,13.3325459 C82.6618855,12.9830517 83.8282335,12.7823345 84.8712475,12.7823345 Z M146.196614,12.7825546 C146.763152,12.7825546 147.949464,12.9524599 148.689467,13.1795872 C149.382,13.4089153 149.625562,13.6989867 149.625562,14.2910141 L149.625562,14.2910141 L149.625562,14.9332208 C149.625562,15.3311337 149.343402,15.4112445 148.887777,15.4112445 C148.531972,15.4112445 148.150879,15.3747105 148.150879,14.9332208 L148.150879,14.9332208 L148.150879,14.3363515 C147.409989,14.1461985 146.591017,14.0255922 146.026698,14.0255922 C144.298693,14.0255922 143.970837,14.4573981 143.970837,15.2545443 C143.970837,15.8091574 144.067109,16.0697375 146.363426,16.4350778 L146.363426,16.4350778 L146.78977,16.5028639 C149.130008,16.8787683 150,17.6217737 150,19.2429165 L150,19.2429165 L150,19.3102624 C150,21.0660969 148.779527,21.782252 145.788016,21.782252 C144.846153,21.782252 144.121677,21.6955387 143.204659,21.4728131 C142.4651,21.2989463 142.189595,20.9688195 142.189595,20.2561858 L142.189595,20.2561858 L142.189595,19.5637998 C142.189595,19.1227503 142.562258,19.0857761 142.943351,19.0857761 C143.317345,19.0857761 143.714853,19.1227503 143.714853,19.5637998 L143.714853,19.5637998 L143.714853,20.1994039 C144.470828,20.4194885 145.24233,20.5224881 146.12918,20.5224881 C148.291072,20.5224881 148.457883,20.0198149 148.457883,19.3102624 C148.457883,18.543928 148.08522,18.1284083 145.967249,17.8431788 L145.967249,17.8431788 L145.472139,17.7753927 C143.309803,17.4813598 142.428277,16.7753285 142.428277,15.3386166 L142.428277,15.3386166 L142.428277,15.2712707 C142.428277,13.5959871 143.660728,12.7825546 146.196614,12.7825546 Z M92.3955447,10.3995672 C92.817453,10.3995672 93.1666032,10.4400627 93.1666032,10.9453768 L93.1666032,10.9453768 L93.1666032,13.002287 L95.7335446,13.002287 C96.1949375,13.002287 96.2322038,13.2949995 96.2322038,13.6484553 C96.2322038,14.0551715 96.1554529,14.262051 95.7335446,14.262051 L95.7335446,14.262051 L93.1666032,14.262051 L93.1666032,19.1413255 C93.1666032,20.1479922 93.4802616,20.4543499 94.5073044,20.4543499 C94.8919463,20.4543499 95.2903413,20.4151748 95.9890853,20.2250218 C96.0609561,20.2069748 96.1128628,20.1999321 96.161664,20.1999321 C96.4828644,20.1999321 96.5605026,20.5388623 96.6022054,20.7215325 C96.6900475,21.0859925 96.6723017,21.3082779 96.3275879,21.4328458 C95.7157988,21.6582124 94.9722464,21.78234 94.2349051,21.78234 C92.4527752,21.78234 91.6582034,21.0036809 91.6582034,19.2597309 L91.6582034,19.2597309 L91.6582034,14.262051 L90.3170586,14.262051 C89.8960376,14.262051 89.8183994,14.0551715 89.8183994,13.6484553 C89.8183994,13.2949995 89.8556658,13.002287 90.3170586,13.002287 L90.3170586,13.002287 L91.6582034,13.002287 L91.6582034,10.9453768 C91.6582034,10.4413832 92.0224376,10.3995672 92.3955447,10.3995672 Z M119.509784,12.7822025 C122.357998,12.7822025 123.92629,14.350525 123.92629,17.1979789 L123.92629,17.1979789 L123.92629,17.3837302 C123.92629,20.1792442 122.316295,21.78234 119.509784,21.78234 C116.703274,21.78234 115.093722,20.1792442 115.093722,17.3837302 L115.093722,17.3837302 L115.093722,17.1979789 C115.093722,14.3091491 116.620755,12.7822025 119.509784,12.7822025 Z M104.111552,13.002067 C104.592909,13.002067 104.592909,13.345839 104.592909,13.6486754 L104.59269,13.7192062 C104.59006,14.0028057 104.555881,14.2957239 104.111552,14.2957239 L104.111552,14.2957239 L103.244222,14.2957239 L104.602669,18.8677604 C104.715799,19.2150538 104.809852,19.5746719 104.886159,19.9532174 L104.886,19.951 L104.979013,19.570743 C105.011334,19.4453763 105.045018,19.3221942 105.08005,19.2013759 L105.18917,18.8461921 L106.619044,14.0848829 C106.769441,13.6601198 107.04184,13.5764876 107.433137,13.5764876 L107.433137,13.5764876 L107.859038,13.5764876 C108.264087,13.5764876 108.526283,13.6557181 108.670468,14.0584728 L108.670468,14.0584728 L110.087033,18.8510339 C110.189959,19.2128529 110.288005,19.5715908 110.368749,19.9510165 C110.4455,19.5856762 110.547539,19.2141734 110.654457,18.8360682 L110.654457,18.8360682 L111.980962,14.2957239 L110.873619,14.2957239 C110.392262,14.2957239 110.392262,13.9519519 110.392262,13.6486754 L110.392481,13.5782385 C110.39511,13.2949852 110.42929,13.002067 110.873619,13.002067 L110.873619,13.002067 L114.007985,13.002067 C114.489786,13.002067 114.489786,13.345839 114.489786,13.6486754 L114.489566,13.7192062 C114.486935,14.0028057 114.452724,14.2957239 114.007985,14.2957239 L114.007985,14.2957239 L113.485369,14.2957239 L111.364293,21.1742464 C111.213453,21.5976891 110.941497,21.6808811 110.5502,21.6808811 L110.5502,21.6808811 L110.158016,21.6808811 C109.700616,21.6808811 109.460603,21.5312236 109.330171,21.1650029 L109.330171,21.1650029 L107.862143,16.3059762 C107.766759,15.9908151 107.690008,15.6813763 107.632334,15.3798604 C107.571555,15.7187906 107.492142,16.0357124 107.394096,16.328865 L107.394096,16.328865 L105.930948,21.1566397 C105.80229,21.6166164 105.4629,21.6808811 105.116856,21.6808811 L105.116856,21.6808811 L104.588472,21.6808811 C104.10889,21.6808811 103.92034,21.4885272 103.784584,21.1993361 L103.784584,21.1993361 L103.775267,21.1755669 L101.602728,14.2957239 L101.113385,14.2957239 C100.632028,14.2957239 100.632028,13.9519519 100.632028,13.6486754 L100.632248,13.5782385 C100.634877,13.2949852 100.669056,13.002067 101.113385,13.002067 L101.113385,13.002067 Z M58.5976746,13.0023751 C59.0794752,13.0023751 59.0794752,13.345707 59.0794752,13.6485433 L59.0792559,13.7191681 C59.0766243,14.0031138 59.0424136,14.2960321 58.5976746,14.2960321 L58.5976746,14.2960321 L57.7303448,14.2960321 L59.0883482,18.8676283 C59.2019218,19.2158021 59.295975,19.5745399 59.3727259,19.9530853 L59.372,19.951 L59.4652674,19.5706273 C59.4975221,19.4452769 59.5311736,19.3221274 59.5661888,19.2013743 L59.6752931,18.8465002 L61.1047237,14.0847509 C61.2555637,13.6604279 61.5275193,13.5767958 61.9188159,13.5767958 L61.9188159,13.5767958 L62.344717,13.5767958 C62.7502104,13.5767958 63.0128494,13.655586 63.1561474,14.0587809 L63.1561474,14.0587809 L64.5735995,18.8513421 C64.6760819,19.2131611 64.7745716,19.5710185 64.8548717,19.9513246 C64.9311789,19.5859843 65.0336614,19.2140414 65.1405803,18.8359361 L65.1405803,18.8359361 L66.4666411,14.2960321 L65.3597419,14.2960321 C64.9520645,14.2960321 64.8893449,14.0498994 64.8796957,13.7901668 L64.8779413,13.6485433 C64.8779413,13.345707 64.8779413,13.0023751 65.3597419,13.0023751 L65.3597419,13.0023751 L68.4932206,13.0023751 C68.9750212,13.0023751 68.9750212,13.345707 68.9750212,13.6485433 C68.9750212,13.95226 68.9750212,14.2960321 68.4932206,14.2960321 L68.4932206,14.2960321 L67.9714917,14.2960321 L65.8499718,21.1745546 C65.7000192,21.5975571 65.4276199,21.680749 65.0363233,21.680749 L65.0363233,21.680749 L64.644583,21.680749 C64.1862957,21.680749 63.945839,21.5310915 63.8158504,21.1644307 L63.8158504,21.1644307 L62.3482662,16.3058442 C62.2528821,15.9906831 62.1761312,15.680804 62.1184571,15.3801685 C62.0581211,15.7182184 61.9782646,16.0360205 61.879775,16.328733 L61.879775,16.328733 L60.4166272,21.1565076 C60.287526,21.6169245 59.949467,21.680749 59.6020914,21.680749 L59.6020914,21.680749 L59.0745951,21.680749 C58.5950127,21.680749 58.4060191,21.4883951 58.2702631,21.199204 L58.2702631,21.199204 L58.2609465,21.1754349 L56.0892946,14.2960321 L55.5999519,14.2960321 C55.1181513,14.2960321 55.1181513,13.95226 55.1181513,13.6485433 L55.1183706,13.5781139 C55.1210022,13.2949182 55.1552129,13.0023751 55.5999519,13.0023751 L55.5999519,13.0023751 Z M71.1419705,9.03064127 C71.7422249,9.03064127 71.9982092,9.28461884 71.9982092,9.88016763 L71.9982092,9.88016763 L71.9982092,11.9925391 C71.9982092,12.7615145 71.9693721,13.3619052 71.9019378,13.9543728 C72.5416768,13.176594 73.6357102,12.7822025 75.1614122,12.7822025 C77.5154031,12.7822025 78.7092571,14.10315 78.7092571,16.7076305 L78.7092571,16.7076305 L78.7092571,20.2857651 L79.5566229,20.2857651 C80.0379798,20.2857651 80.0379798,20.6295372 80.0379798,20.9328137 L80.0377607,21.0032506 C80.0351316,21.2865039 80.0009524,21.5794221 79.5566229,21.5794221 L79.5566229,21.5794221 L76.3712375,21.5794221 C75.8894369,21.5794221 75.8894369,21.23565 75.8894369,20.9328137 L75.8896562,20.8622829 C75.8922878,20.5786833 75.9264985,20.2857651 76.3712375,20.2857651 L76.3712375,20.2857651 L77.2008574,20.2857651 L77.2008574,17.0795734 C77.2008574,14.808741 76.6045958,14.0424066 74.8379935,14.0424066 C72.9804436,14.0424066 71.9982092,14.9931719 71.9982092,16.792143 L71.9982092,16.792143 L71.9982092,20.2857651 L72.8455749,20.2857651 C73.3273756,20.2857651 73.3273756,20.6295372 73.3273756,20.9328137 L73.3271563,21.0032506 C73.3245247,21.2865039 73.290314,21.5794221 72.8455749,21.5794221 L72.8455749,21.5794221 L69.6770482,21.5794221 C69.1952476,21.5794221 69.1952476,21.23565 69.1952476,20.9328137 L69.1954669,20.8622829 C69.1980984,20.5786833 69.2323091,20.2857651 69.6770482,20.2857651 L69.6770482,20.2857651 L70.4898095,20.2857651 L70.4898095,10.4211355 C70.4898095,10.3643536 70.484042,10.3379435 70.4809365,10.3282598 C70.4756127,10.3295803 70.4498812,10.3242983 70.3926508,10.3242983 L70.3926508,10.3242983 L69.7795306,10.3242983 C69.4707523,10.3242983 69.3150322,10.1293033 69.3150322,9.74503572 C69.3150322,9.25116599 69.5372994,9.03064127 70.0350713,9.03064127 L70.0350713,9.03064127 Z M133.940512,9.0304652 C134.540322,9.0304652 134.797194,9.28488294 134.797194,9.88043173 L134.797194,9.88043173 L134.797194,16.3817293 L136.41828,16.3817293 L138.045577,14.295768 L137.773178,14.295768 C137.291377,14.295768 137.291377,13.9519959 137.291377,13.6487194 L137.291597,13.5782825 C137.294228,13.2950292 137.328439,13.002111 137.773178,13.002111 L137.773178,13.002111 L140.447482,13.002111 C140.928839,13.002111 140.928839,13.345883 140.928839,13.6487194 L140.92862,13.7192502 C140.925991,14.0028497 140.891811,14.295768 140.447482,14.295768 L140.447482,14.295768 L139.719457,14.295768 L137.523405,16.932821 L140.065945,20.285589 L140.685277,20.285589 C141.167521,20.285589 141.167521,20.6293611 141.167521,20.9326376 L141.167301,21.003161 C141.164667,21.2867029 141.130425,21.579246 140.685277,21.579246 L140.685277,21.579246 L139.918655,21.579246 C139.301542,21.579246 139.044226,21.3886528 138.759849,21.0131886 L138.759849,21.0131886 L136.294946,17.6419334 L134.797194,17.6419334 L134.797194,20.285589 L135.745711,20.285589 C136.227068,20.285589 136.227068,20.6293611 136.227068,20.9326376 C136.227068,21.2359141 136.227068,21.579246 135.745711,21.579246 L135.745711,21.579246 L132.612233,21.579246 C132.130432,21.579246 132.130432,21.2359141 132.130432,20.9326376 L132.130651,20.8621068 C132.133283,20.5785073 132.167493,20.285589 132.612233,20.285589 L132.612233,20.285589 L133.287907,20.285589 L133.287907,10.4213996 C133.287907,10.3641776 133.282139,10.3382076 133.279921,10.3280837 C133.273267,10.3298444 133.248422,10.3241222 133.190748,10.3245624 L133.190748,10.3245624 L132.59493,10.3245624 C132.286152,10.3245624 132.130432,10.1295674 132.130432,9.74485965 C132.130432,9.25098992 132.352255,9.0304652 132.850471,9.0304652 L132.850471,9.0304652 Z M130.440758,12.7824666 C130.871539,12.7824666 131.311193,12.8498125 131.615535,12.9633761 C132.02369,13.1103926 131.899026,13.4999422 131.816507,13.7574412 C131.736651,14.0167007 131.624852,14.2953278 131.311193,14.2953278 C131.262836,14.2953278 131.210485,14.2887253 131.147488,14.2741997 C130.906587,14.217858 130.617329,14.160636 130.2877,14.160636 C128.488711,14.160636 127.686154,15.1915121 127.686154,17.5019597 L127.686154,17.5019597 L127.686154,20.285589 L128.652417,20.285589 C129.133774,20.285589 129.133774,20.6293611 129.133774,20.9326376 L129.133555,21.003161 C129.130926,21.2867029 129.096747,21.579246 128.652417,21.579246 L128.652417,21.579246 L125.501192,21.579246 C125.019392,21.579246 125.019392,21.2359141 125.019392,20.9326376 L125.019611,20.8621068 C125.022243,20.5785073 125.056453,20.285589 125.501192,20.285589 L125.501192,20.285589 L126.177754,20.285589 L126.177754,14.3926052 C126.177754,14.3433062 126.174205,14.3151354 126.171099,14.3001696 C126.15779,14.2979688 126.135608,14.295768 126.097454,14.295768 L126.097454,14.295768 L125.484334,14.295768 C125.272271,14.295768 125.019392,14.1954094 125.019392,13.7165054 C125.019392,13.2226357 125.241659,13.002111 125.739875,13.002111 L125.739875,13.002111 L126.642696,13.002111 C127.229641,13.002111 127.509582,13.2600501 127.549511,13.8388724 L127.549511,13.8388724 L127.573911,14.1967299 C128.073458,13.2697338 129.056136,12.7824666 130.440758,12.7824666 Z M119.509784,14.0424066 C117.545759,14.0424066 116.670887,15.0261846 116.670887,17.2314317 L116.670887,17.2314317 L116.670887,17.3498372 C116.670887,19.5674091 117.545759,20.5560289 119.509784,20.5560289 C121.47381,20.5560289 122.349569,19.5674091 122.349569,17.3498372 L122.349569,17.3498372 L122.349569,17.2314317 C122.349569,15.0261846 121.47381,14.0424066 119.509784,14.0424066 Z M84.7350479,17.5238361 C83.2018039,17.5238361 82.2865602,18.0714064 82.2865602,18.9895992 L82.2865602,18.9895992 L82.2865602,19.0565049 C82.2865602,19.9394841 83.2248736,20.488375 84.7350479,20.488375 C86.3752108,20.488375 87.2341114,19.7431687 87.2341114,19.0058854 C87.2341114,18.1052995 86.2532079,17.5238361 84.7350479,17.5238361 Z" id="Combined-Shape"></path>
                            </g>
                        </g>
                    </g>
                </g>
            </g>
        </g>
    </g>
</svg>