<svg xmlns="http://www.w3.org/2000/svg" style="display: none;">
  <symbol id="cancel" viewBox="0 0 512.001 512.001"><title>cancel</title><path d="M284.286,256.002L506.143,34.144c7.811-7.811,7.811-20.475,0-28.285c-7.811-7.81-20.475-7.811-28.285,0L256,227.717 L34.143,5.859c-7.811-7.811-20.475-7.811-28.285,0c-7.81,7.811-7.811,20.475,0,28.285l221.857,221.857L5.858,477.859 c-7.811,7.811-7.811,20.475,0,28.285c3.905,3.905,9.024,5.857,14.143,5.857c5.119,0,10.237-1.952,14.143-5.857L256,284.287 l221.857,221.857c3.905,3.905,9.024,5.857,14.143,5.857s10.237-1.952,14.143-5.857c7.811-7.811,7.811-20.475,0-28.285 L284.286,256.002z"/></symbol>
  <symbol id="comment" viewBox="0 0 384 384"><title>comment</title><path d="m192 384c105.863281 0 192-86.128906 192-192 0-18.273438-2.550781-36.28125-7.601562-53.527344-2.488282-8.480468-11.34375-13.351562-19.847657-10.863281-8.488281 2.480469-13.34375 11.367187-10.863281 19.847656 4.183594 14.328125 6.3125 29.320313 6.3125 44.542969 0 88.222656-71.777344 160-160 160s-160-71.777344-160-160 71.777344-160 160-160c32.0625 0 62.910156 9.375 89.207031 27.105469 7.320313 4.941406 17.273438 3 22.207031-4.320313 4.9375-7.328125 3.011719-17.273437-4.316406-22.210937-31.601562-21.308594-68.632812-32.574219-107.097656-32.574219-105.863281 0-192 86.128906-192 192s86.136719 192 192 192zm0 0"/><path d="m356.6875 36.6875-164.6875 164.679688-52.6875-52.679688c-6.25-6.246094-16.375-6.246094-22.625 0-6.246094 6.25-6.246094 16.375 0 22.625l64 64c3.128906 3.128906 7.214844 4.6875 11.3125 4.6875s8.183594-1.558594 11.3125-4.6875l176-176c6.246094-6.25 6.246094-16.375 0-22.625-6.25-6.246094-16.375-6.246094-22.625 0zm0 0"/></symbol>
  <symbol id="left-arrow" viewBox="0 0 482.239 482.239"><title>left-arrow</title><path d="m206.812 34.446-206.812 206.673 206.743 206.674 24.353-24.284-165.167-165.167h416.31v-34.445h-416.31l165.236-165.236z"/></symbol>
  <symbol id="sad-face" viewBox="0 0 106.059 106.059"><title>sad-face</title><path d="M90.546,15.518C69.858-5.172,36.199-5.172,15.515,15.513C-5.173,36.198-5.171,69.858,15.517,90.547c20.682,20.684,54.341,20.684,75.027-0.004C111.23,69.858,111.229,36.2,90.546,15.518z M84.757,84.758c-17.494,17.494-45.96,17.496-63.455,0.002c-17.498-17.497-17.496-45.966,0-63.46C38.796,3.807,67.261,3.805,84.759,21.302C102.253,38.796,102.251,67.265,84.757,84.758z M77.017,74.001c0.658,1.521-0.042,3.286-1.562,3.943c-1.521,0.66-3.286-0.042-3.944-1.562c-2.893-6.689-9.73-11.012-17.421-11.012c-7.868,0-14.747,4.319-17.522,11.004c-0.479,1.154-1.596,1.851-2.771,1.851c-0.384,0-0.773-0.074-1.15-0.23c-1.53-0.636-2.255-2.392-1.62-3.921c3.71-8.932,12.764-14.703,23.063-14.703C64.174,59.371,73.174,65.113,77.017,74.001z M33.24,38.671c0-3.424,2.777-6.201,6.201-6.201c3.423,0,6.2,2.776,6.2,6.201c0,3.426-2.777,6.202-6.2,6.202C36.017,44.873,33.24,42.097,33.24,38.671z M61.357,38.671c0-3.424,2.779-6.201,6.203-6.201c3.423,0,6.2,2.776,6.2,6.201c0,3.426-2.776,6.202-6.2,6.202S61.357,42.097,61.357,38.671z"/></symbol>
</svg>
